<svg width="73" height="72" viewBox="0 0 73 72" fill="none" xmlns="http://www.w3.org/2000/svg">
<path fill-rule="evenodd" clip-rule="evenodd" d="M0.967773 9.70076C0.967773 4.82225 4.9599 0.867432 9.88444 0.867432C14.809 0.867432 18.8011 4.82225 18.8011 9.70076C18.8011 14.5793 14.809 18.5341 9.88444 18.5341C4.9599 18.5341 0.967773 14.5793 0.967773 9.70076ZM27.7178 9.70076C27.7178 4.82225 31.7098 0.867432 36.6344 0.867432C41.5591 0.867432 45.5511 4.82225 45.5511 9.70076C45.5511 14.5793 41.5591 18.5341 36.6344 18.5341C31.7098 18.5341 27.7178 14.5793 27.7178 9.70076ZM63.3844 0.867432C58.4598 0.867432 54.4678 4.82225 54.4678 9.70076C54.4678 14.5793 58.4598 18.5341 63.3844 18.5341C68.3091 18.5341 72.3011 14.5793 72.3011 9.70076C72.3011 4.82225 68.3091 0.867432 63.3844 0.867432ZM0.967773 36.2008C0.967773 31.3221 4.9599 27.3674 9.88444 27.3674C14.809 27.3674 18.8011 31.3221 18.8011 36.2008C18.8011 41.0794 14.809 45.0341 9.88444 45.0341C4.9599 45.0341 0.967773 41.0794 0.967773 36.2008ZM36.6344 27.3674C31.7098 27.3674 27.7178 31.3221 27.7178 36.2008C27.7178 41.0794 31.7098 45.0341 36.6344 45.0341C41.5591 45.0341 45.5511 41.0794 45.5511 36.2008C45.5511 31.3221 41.5591 27.3674 36.6344 27.3674ZM54.4678 36.2008C54.4678 31.3221 58.4598 27.3674 63.3844 27.3674C68.3091 27.3674 72.3011 31.3221 72.3011 36.2008C72.3011 41.0794 68.3091 45.0341 63.3844 45.0341C58.4598 45.0341 54.4678 41.0794 54.4678 36.2008ZM9.88444 53.8674C4.9599 53.8674 0.967773 57.8221 0.967773 62.7008C0.967773 67.5794 4.9599 71.5341 9.88444 71.5341C14.809 71.5341 18.8011 67.5794 18.8011 62.7008C18.8011 57.8221 14.809 53.8674 9.88444 53.8674ZM27.7178 62.7008C27.7178 57.8221 31.7098 53.8674 36.6344 53.8674C41.5591 53.8674 45.5511 57.8221 45.5511 62.7008C45.5511 67.5794 41.5591 71.5341 36.6344 71.5341C31.7098 71.5341 27.7178 67.5794 27.7178 62.7008ZM63.3844 53.8674C58.4598 53.8674 54.4678 57.8221 54.4678 62.7008C54.4678 67.5794 58.4598 71.5341 63.3844 71.5341C68.3091 71.5341 72.3011 67.5794 72.3011 62.7008C72.3011 57.8221 68.3091 53.8674 63.3844 53.8674Z" fill="white"/>
</svg>
