<svg width="114" height="132" viewBox="0 0 114 132" fill="none" xmlns="http://www.w3.org/2000/svg">
<path d="M91.5631 5.5L86.8953 13.2681L103.746 42.1616L90.0757 57.5C90.0757 57.5 100.821 57.4362 100.757 57.5C100.693 57.5638 113.538 43.0533 113.538 43.0533L91.5631 5.5ZM85.4334 16.1329L69.5376 43.1809L82.0633 57.5H86.7741L93.6611 49.4799H86.0089L79.2622 41.9718L90.0709 23.5788L85.4334 16.1329Z" fill="#04183D"/>
<path d="M19.9945 0L19.5684 1.43569V43.0923L19.9945 43.5139L39.4883 32.0842L19.9945 0Z" fill="#343434"/>
<path d="M19.9943 0L0.5 32.0842L19.9943 43.5139V23.295V0Z" fill="#8C8C8C"/>
<path d="M19.9941 47.1748L19.7539 47.4653V62.304L19.9941 62.9994L39.4998 35.751L19.9941 47.1748Z" fill="#3C3C3B"/>
<path d="M19.9943 62.9994V47.1748L0.5 35.751L19.9943 62.9994Z" fill="#8C8C8C"/>
<path d="M19.9941 43.5139L39.4879 32.0841L19.9941 23.2949V43.5139Z" fill="#141414"/>
<path d="M0.5 32.0841L19.9943 43.5139V23.2949L0.5 32.0841Z" fill="#393939"/>
<g clip-path="url(#clip0_2094_58)">
<path d="M113.538 85.8118H67.5376V131.812H113.538V85.8118Z" fill="black"/>
<path d="M90.3181 128.573V121.813C89.6442 121.813 88.9557 121.754 88.2818 121.65L87.227 128.321C88.2525 128.499 89.2926 128.573 90.3181 128.573ZM93.3945 128.336C94.42 128.173 95.4308 127.937 96.4123 127.611L94.3467 121.177C93.7022 121.384 93.0283 121.547 92.3544 121.65L93.3945 128.336ZM84.2238 127.611L86.2894 121.192C85.6448 120.985 85.0149 120.719 84.3996 120.408L81.3525 126.428C82.2754 126.886 83.2423 127.286 84.2238 127.611ZM99.269 126.428C100.192 125.955 101.071 125.407 101.906 124.801L97.9506 119.343C97.4085 119.742 96.8225 120.112 96.2073 120.408L99.269 126.428ZM78.7155 124.786L82.6709 119.328C82.1289 118.929 81.6015 118.485 81.1181 117.997L76.3716 122.775C77.1041 123.499 77.8952 124.18 78.7155 124.786ZM104.235 122.804L104.279 122.76C105.012 122.035 105.686 121.236 106.286 120.408L100.866 116.429C100.47 116.976 100.016 117.509 99.5474 117.982L99.4741 118.056L101.759 120.23L104.235 122.804ZM74.3646 120.393L79.785 116.414C79.3894 115.867 79.0232 115.275 78.7155 114.669L72.7385 117.731C73.2073 118.663 73.7493 119.55 74.3646 120.393ZM107.898 117.746C108.366 116.829 108.762 115.852 109.084 114.861L102.697 112.791C102.492 113.441 102.228 114.077 101.921 114.684L107.898 117.746ZM71.5518 114.861L77.9391 112.776C77.734 112.125 77.5729 111.459 77.4703 110.779L70.834 111.829C70.9952 112.85 71.2442 113.87 71.5518 114.861ZM109.802 111.844C109.963 110.823 110.051 109.773 110.051 108.738H103.342C103.342 109.418 103.283 110.113 103.18 110.794L109.802 111.844ZM77.3092 108.723C77.3092 108.043 77.3678 107.347 77.4703 106.667L70.834 105.617C70.6729 106.638 70.5996 107.688 70.585 108.723H77.3092ZM103.18 106.682L109.817 105.632C109.656 104.611 109.421 103.591 109.099 102.6L102.712 104.67C102.917 105.336 103.078 106.002 103.18 106.682ZM77.9391 104.67C78.1442 104.02 78.4079 103.384 78.7155 102.777L72.7385 99.7153C72.2697 100.632 71.8741 101.609 71.5518 102.6L77.9391 104.67ZM101.935 102.792L107.927 99.7301C107.458 98.7983 106.916 97.9108 106.301 97.0677L100.866 101.047C101.261 101.594 101.628 102.185 101.935 102.792ZM79.785 101.032C80.1805 100.484 80.6346 99.952 81.1181 99.4639L81.1327 99.4491L76.3862 94.6716L76.3716 94.6864C75.6391 95.4259 74.9652 96.2099 74.3646 97.053L79.785 101.032ZM99.5474 99.4935L100.983 98.0292L104.279 94.716L104.265 94.7012C103.532 93.9764 102.756 93.296 101.935 92.6896L97.9799 98.1475C98.5219 98.5468 99.0493 98.9906 99.5181 99.4787L99.5474 99.4935ZM82.6856 98.1179C83.2276 97.7186 83.8136 97.3636 84.4289 97.053L81.3818 91.033C80.4588 91.5063 79.5799 92.0536 78.7448 92.66L82.6856 98.1179ZM96.2512 97.0677L99.313 91.0478C98.3901 90.5745 97.4378 90.1751 96.4563 89.8497L94.376 96.269C95.006 96.4909 95.6359 96.7571 96.2512 97.0677ZM86.3187 96.269C86.9633 96.062 87.6372 95.8993 88.3111 95.7957L87.2709 89.125C86.2601 89.2877 85.2346 89.5243 84.2531 89.8497L86.3187 96.269ZM92.369 95.7957L93.4238 89.125C92.413 88.9623 91.3729 88.8735 90.3474 88.8735V95.633C91.0213 95.633 91.7098 95.6922 92.369 95.7957Z" fill="white"/>
<path d="M90.318 122.124V115.335C89.7467 115.335 89.19 115.261 88.6333 115.113L86.8753 121.665C88.0034 121.961 89.1607 122.124 90.318 122.124ZM93.7607 121.665C94.8887 121.369 95.9581 120.925 96.969 120.334L93.5703 114.462C93.0868 114.743 92.5594 114.965 92.0174 115.113L93.7607 121.665ZM83.6817 120.334L87.0804 114.462C86.597 114.181 86.1429 113.826 85.7327 113.426L85.6741 113.367L83.5352 115.63L80.8983 118.189L80.9422 118.234C81.7626 119.047 82.6855 119.757 83.6817 120.334ZM99.7085 118.234C100.529 117.405 101.247 116.488 101.818 115.482L95.9435 112.08C95.6652 112.569 95.3136 113.012 94.9034 113.426L99.7085 118.234ZM78.818 115.468L84.6925 112.08C84.4142 111.592 84.1945 111.075 84.048 110.527L77.4996 112.273C77.7925 113.382 78.2467 114.462 78.818 115.468ZM103.151 112.288C103.444 111.163 103.605 110.01 103.605 108.856H96.8225C96.8225 109.418 96.7492 109.995 96.6027 110.542L103.151 112.288ZM83.8429 108.841C83.8429 108.279 83.9161 107.702 84.0626 107.155L77.4996 105.41C77.2066 106.534 77.0454 107.688 77.0454 108.841H83.8429ZM96.5881 107.17L103.151 105.425C102.858 104.3 102.404 103.221 101.833 102.215L95.9582 105.602C96.2218 106.105 96.4416 106.623 96.5881 107.17ZM84.7072 105.602C84.9855 105.129 85.3225 104.67 85.7327 104.271L85.7473 104.256L83.3155 101.83L80.9862 99.4194L80.9422 99.4638C80.1218 100.277 79.4187 101.209 78.8327 102.2L84.7072 105.602ZM94.9034 104.271L97.3059 101.86L99.7671 99.5229L99.7085 99.4638C98.8881 98.6355 97.9652 97.9403 96.969 97.3487L93.5703 103.221C94.0537 103.502 94.4932 103.842 94.9034 104.241V104.271ZM87.0804 103.221C87.5639 102.94 88.0913 102.718 88.6333 102.57L86.9046 96.0175C85.7766 96.3133 84.7072 96.757 83.6964 97.3487L87.0804 103.221ZM92.0027 102.585L93.7607 96.0323C92.6473 95.7364 91.49 95.5737 90.3327 95.5737V102.363C90.8894 102.363 91.4607 102.437 92.0027 102.585Z" fill="white"/>
</g>
<g clip-path="url(#clip1_2094_58)">
<path d="M30.4265 105.224H12.1785C7.13765 105.224 3.10496 109.273 2.90332 114.465C2.90332 114.568 3.00414 114.672 3.10496 114.672H21.3529C26.3938 114.672 30.4265 110.623 30.6281 105.432C30.6281 105.328 30.5273 105.224 30.4265 105.224Z" fill="#E62058"/>
<path d="M39.6009 91H12.1785C7.13765 91 3.10496 95.0492 2.90332 100.24C2.90332 100.344 3.00414 100.552 3.10496 100.552H30.6281C35.669 100.552 39.7017 96.5027 39.9033 91.3115C39.9033 91.1038 39.8025 91 39.6009 91Z" fill="#E62058"/>
<path d="M7.54092 129C10.1022 129 12.1785 126.862 12.1785 124.224C12.1785 121.586 10.1022 119.448 7.54092 119.448C4.97965 119.448 2.90332 121.586 2.90332 124.224C2.90332 126.862 4.97965 129 7.54092 129Z" fill="#E62058"/>
</g>
<defs>
<clipPath id="clip0_2094_58">
<rect width="46" height="46" fill="white" transform="translate(67.5376 85.8118)"/>
</clipPath>
<clipPath id="clip1_2094_58">
<rect width="37" height="38" fill="white" transform="translate(2.90332 91)"/>
</clipPath>
</defs>
</svg>
