<svg width="128" height="164" viewBox="0 0 128 164" fill="none" xmlns="http://www.w3.org/2000/svg">
<path d="M32.8125 22.99C30.0828 23.7364 28.4375 25.831 28.4375 27.8098C28.4375 29.7888 30.0828 31.8833 32.8125 32.6296V22.99Z" fill="white"/>
<path d="M37.1875 37.5735V47.2131C39.9172 46.4667 41.5625 44.3722 41.5625 42.3933C41.5625 40.4143 39.9172 38.3199 37.1875 37.5735Z" fill="white"/>
<path fill-rule="evenodd" clip-rule="evenodd" d="M64.1668 35.1015C64.1668 51.2096 51.1083 64.2681 35.0002 64.2681C18.8918 64.2681 5.8335 51.2096 5.8335 35.1015C5.8335 18.9932 18.8918 5.93481 35.0002 5.93481C51.1083 5.93481 64.1668 18.9932 64.1668 35.1015ZM35.0002 15.414C36.2082 15.414 37.1877 16.3934 37.1877 17.6015V18.5253C41.943 19.3768 45.9377 22.9495 45.9377 27.8098C45.9377 29.0179 44.9582 29.9973 43.7502 29.9973C42.5421 29.9973 41.5627 29.0179 41.5627 27.8098C41.5627 25.831 39.9174 23.7364 37.1877 22.99V33.1085C41.943 33.9602 45.9377 37.5328 45.9377 42.3931C45.9377 47.2535 41.943 50.8261 37.1877 51.6778V52.6015C37.1877 53.8096 36.2082 54.789 35.0002 54.789C33.7921 54.789 32.8127 53.8096 32.8127 52.6015V51.6778C28.0572 50.8261 24.0627 47.2535 24.0627 42.3931C24.0627 41.1851 25.042 40.2056 26.2502 40.2056C27.4583 40.2056 28.4377 41.1851 28.4377 42.3931C28.4377 44.3721 30.083 46.4666 32.8127 47.2129V37.0944C28.0572 36.2428 24.0627 32.6701 24.0627 27.8098C24.0627 22.9495 28.0572 19.3768 32.8127 18.5253V17.6015C32.8127 16.3934 33.7921 15.414 35.0002 15.414Z" fill="white"/>
<path d="M111.786 141.768C106.666 144.328 99.8398 142.622 96.4265 137.502L87.0398 125.555H40.9598L31.5732 137.502C27.3065 143.475 19.6265 144.328 13.6532 140.062C9.38649 136.648 7.67982 131.528 8.53316 127.262L14.5065 95.6882C16.2132 85.4482 25.5998 77.7682 35.8398 77.7682H59.7332V64.9682C59.7332 58.1415 64.8532 52.1682 71.6798 52.1682H98.1331C100.693 52.1682 102.4 53.8749 102.4 56.4349C102.4 58.9949 100.693 60.7015 98.1331 60.7015H72.5332C69.9732 60.7015 68.2665 62.4082 68.2665 64.1149V64.9682V77.7682H92.1598C102.4 77.7682 111.786 85.4482 113.493 95.6882L119.466 127.262C120.32 133.235 117.76 139.208 111.786 141.768ZM51.1998 99.1015C51.1998 92.2749 45.2265 86.3015 38.3998 86.3015C31.5732 86.3015 25.5998 92.2749 25.5998 99.1015C25.5998 105.928 31.5732 111.902 38.3998 111.902C45.2265 111.902 51.1998 105.928 51.1998 99.1015ZM102.4 99.1015C102.4 96.5415 100.693 94.8349 98.1331 94.8349H93.8665V90.5682C93.8665 88.0082 92.1598 86.3015 89.5998 86.3015C87.0398 86.3015 85.3332 88.0082 85.3332 90.5682V94.8349H81.0665C78.5065 94.8349 76.7998 96.5415 76.7998 99.1015C76.7998 101.662 78.5065 103.368 81.0665 103.368H85.3332V107.635C85.3332 110.195 87.0398 111.902 89.5998 111.902C92.1598 111.902 93.8665 110.195 93.8665 107.635V103.368H98.1331C100.693 103.368 102.4 101.662 102.4 99.1015Z" fill="white"/>
</svg>
